<?xml version="1.0" encoding="UTF-8" standalone="no"?>
<!-- Created with Inkscape (http://www.inkscape.org/) -->

<svg
   xmlns:dc="http://purl.org/dc/elements/1.1/"
   xmlns:cc="http://creativecommons.org/ns#"
   xmlns:rdf="http://www.w3.org/1999/02/22-rdf-syntax-ns#"
   xmlns:svg="http://www.w3.org/2000/svg"
   xmlns="http://www.w3.org/2000/svg"
   xmlns:sodipodi="http://sodipodi.sourceforge.net/DTD/sodipodi-0.dtd"
   xmlns:inkscape="http://www.inkscape.org/namespaces/inkscape"
   width="6000"
   height="3000"
   id="svg2"
   version="1.1"
   inkscape:version="0.48.4 r9939"
   sodipodi:docname="icons.svg">
  <defs
     id="defs4" />
  <sodipodi:namedview
     id="base"
     pagecolor="#ffffff"
     bordercolor="#666666"
     borderopacity="1.0"
     inkscape:pageopacity="0.0"
     inkscape:pageshadow="2"
     inkscape:zoom="0.35"
     inkscape:cx="2026.9914"
     inkscape:cy="1751.5761"
     inkscape:document-units="px"
     inkscape:current-layer="layer1"
     showgrid="false"
     inkscape:window-width="1920"
     inkscape:window-height="1014"
     inkscape:window-x="0"
     inkscape:window-y="27"
     inkscape:window-maximized="1" />
  <metadata
     id="metadata7">
    <rdf:RDF>
      <cc:Work
         rdf:about="">
        <dc:format>image/svg+xml</dc:format>
        <dc:type
           rdf:resource="http://purl.org/dc/dcmitype/StillImage" />
        <dc:title></dc:title>
      </cc:Work>
    </rdf:RDF>
  </metadata>
  <g
     inkscape:label="Calque 1"
     inkscape:groupmode="layer"
     id="layer1"
     transform="translate(0,1947.6378)">
    <g
       id="g4148"
       transform="matrix(1.0326452,0,0,1.0326452,-303.16118,9.838773)"
       style="fill:#2887c6;fill-opacity:1;stroke:#2887c6;stroke-opacity:1">
      <path
         inkscape:connector-curvature="0"
         id="path3883-5"
         d="m 1771.2812,-1544.8878 c -13.1739,0 -25.4465,3.8401 -35.8124,10.4687 -0.031,-1.1697 -0.044,-2.3344 -0.094,-3.5 l -379.9062,0 c -0.118,2.7476 -0.1876,5.5047 -0.1876,8.2813 0,87.2545 58.7879,160.7876 138.9063,183.1562 l 102.4687,0 c 50.9774,-14.2325 93.3177,-49.1725 117.375,-95.1875 11.7949,19.4545 33.0205,32.4063 57.25,32.4063 37.0578,0 67.0938,-30.3604 67.0938,-67.8125 0,-37.4521 -30.036,-67.8125 -67.0938,-67.8125 z m -0.7187,38.25 c 16.963,0 30.7187,13.7557 30.7187,30.7187 0,16.9631 -13.7557,30.7188 -30.7187,30.7188 -16.963,0 -30.7187,-13.7557 -30.7187,-30.7188 0,-16.963 13.7557,-30.7187 30.7187,-30.7187 z"
         style="color:#000000;fill:#2887c6;fill-opacity:1;stroke:#2887c6;stroke-width:12;stroke-linecap:round;stroke-linejoin:round;stroke-miterlimit:4;stroke-opacity:1;stroke-dasharray:none;stroke-dashoffset:0;marker:none;visibility:visible;display:inline;overflow:visible;enable-background:accumulate" />
      <path
         sodipodi:nodetypes="ssscsssss"
         inkscape:connector-curvature="0"
         id="path4100"
         d="m 1430.0842,-1578.0547 c -1.2083,-20.1669 38.174,-28.3654 36.3655,-48.4874 -1.4647,-16.2973 -40.5788,-32.1923 -40.9112,-55.0533 -0.2777,-19.1006 32.83,-46.9721 32.83,-46.9721 0,0 -15.3208,32.9271 -8.5863,46.4671 7.4001,14.8781 46.8911,32.9254 46.9721,58.5888 0.065,20.6429 -19.1839,36.1621 -35.3554,48.9924 -5.0756,4.027 -13.8399,9.3012 -20.2031,8.0812 -5.2626,-1.0089 -10.7912,-6.2678 -11.1116,-11.6167 z"
         style="fill:#2887c6;fill-opacity:1;stroke:#2887c6;stroke-width:12;stroke-linecap:round;stroke-linejoin:round;stroke-miterlimit:4;stroke-opacity:1;stroke-dasharray:none" />
      <path
         sodipodi:nodetypes="ssscsssss"
         inkscape:connector-curvature="0"
         id="path4100-0"
         d="m 1529.1726,-1581.082 c -1.2083,-20.1669 38.174,-28.3653 36.3655,-48.4873 -1.4647,-16.2973 -40.5788,-32.1924 -40.9112,-55.0533 -0.2777,-19.1006 32.83,-46.9721 32.83,-46.9721 0,0 -15.3208,32.927 -8.5863,46.467 7.4001,14.8782 46.8911,32.9254 46.9721,58.5889 0.065,20.6429 -19.1839,36.1621 -35.3554,48.9923 -5.0756,4.027 -13.8399,9.3012 -20.2031,8.0813 -5.2626,-1.009 -10.7912,-6.2679 -11.1116,-11.6168 z"
         style="fill:#2887c6;fill-opacity:1;stroke:#2887c6;stroke-width:12;stroke-linecap:round;stroke-linejoin:round;stroke-miterlimit:4;stroke-opacity:1;stroke-dasharray:none" />
      <path
         sodipodi:nodetypes="ssscsssss"
         inkscape:connector-curvature="0"
         id="path4100-0-6"
         d="m 1635.0609,-1576.9196 c -1.2083,-20.1669 38.174,-28.3653 36.3655,-48.4873 -1.4647,-16.2973 -40.5788,-32.1924 -40.9112,-55.0533 -0.2777,-19.1006 32.83,-46.9721 32.83,-46.9721 0,0 -15.3208,32.927 -8.5863,46.467 7.4001,14.8782 46.8911,32.9254 46.9721,58.5889 0.065,20.6429 -19.1839,36.1621 -35.3554,48.9923 -5.0756,4.027 -13.8399,9.3012 -20.2031,8.0813 -5.2626,-1.009 -10.7912,-6.2679 -11.1116,-11.6168 z"
         style="fill:#2887c6;fill-opacity:1;stroke:#2887c6;stroke-width:12;stroke-linecap:round;stroke-linejoin:round;stroke-miterlimit:4;stroke-opacity:1;stroke-dasharray:none" />
    </g>
    <rect
       style="opacity:0;color:#000000;fill:none;fill-opacity:1;fill-rule:evenodd;stroke:#2887c6;stroke-width:1;stroke-linecap:round;stroke-linejoin:round;stroke-miterlimit:4;stroke-opacity:1;stroke-dasharray:none;stroke-dashoffset:0;marker:none;visibility:visible;display:inline;overflow:visible;enable-background:accumulate"
       id="rect4980"
       width="531.42859"
       height="531.42859"
       x="1080"
       y="97.14286"
       transform="translate(0,-1947.6378)"
       inkscape:export-filename="/home/jjouber/Documents/Perso/cooking_plan/website/res/favicon.png"
       inkscape:export-xdpi="4.0570059"
       inkscape:export-ydpi="4.0570059" />
    <rect
       style="opacity:0.97132616;color:#000000;fill:none;stroke:#2887c6;stroke-width:1;stroke-linecap:round;stroke-linejoin:round;stroke-miterlimit:4;stroke-opacity:1;stroke-dasharray:none;stroke-dashoffset:0;marker:none;visibility:visible;display:inline;overflow:visible;enable-background:accumulate;fill-opacity:1"
       id="rect4980-5"
       width="531.42859"
       height="531.42859"
       x="1955.6873"
       y="-1845.4543"
       inkscape:export-filename="/home/jjouber/Documents/Perso/cooking_plan/website/res/favicon.png"
       inkscape:export-xdpi="4.0570059"
       inkscape:export-ydpi="4.0570059" />
    <path
       style="color:#000000;fill:#b3b3b3;fill-opacity:1;fill-rule:evenodd;stroke:#b3b3b3;stroke-width:11.73908519999999989;stroke-linecap:round;stroke-linejoin:round;stroke-miterlimit:4;stroke-opacity:1;stroke-dasharray:none;stroke-dashoffset:0;marker:none;visibility:visible;display:inline;overflow:visible;enable-background:accumulate"
       d="m 2145.6036,-1769.2989 -36.9904,67.1024 -71.8101,0 c -35.0373,0 -63.2504,28.2132 -63.2504,63.2504 l 0,185.9605 c 0,35.0373 28.2131,63.2505 63.2504,63.2505 l 371.7376,0 c 35.0373,0 63.2504,-28.2132 63.2504,-63.2505 l 0,-185.9605 c 0,-35.0372 -28.2131,-63.2504 -63.2504,-63.2504 l -58.7566,0 -34.239,-67.1024 -169.9415,0 z m 82.2653,87.9209 c 71.7913,0 129.9859,58.1946 129.9859,129.986 0,71.7912 -58.1946,129.9858 -129.9859,129.9858 -71.7914,0 -129.9859,-58.1946 -129.9859,-129.9858 0,-71.7914 58.1945,-129.986 129.9859,-129.986 z m 183.2703,4.5244 c 18.9097,0 34.239,15.3293 34.239,34.239 0,18.9098 -15.3293,34.239 -34.239,34.239 -18.9097,0 -34.239,-15.3292 -34.239,-34.239 0,-18.9097 15.3293,-34.239 34.239,-34.239 z m -184.3403,50.5942 c -42.4481,0 -76.8544,34.437 -76.8544,76.885 0,42.448 34.4063,76.8543 76.8544,76.8543 42.4478,0 76.8849,-34.4063 76.8849,-76.8543 0,-42.448 -34.4371,-76.885 -76.8849,-76.885 z"
       id="rect3029"
       inkscape:connector-curvature="0" />
    <rect
       style="opacity:0.01;color:#000000;fill:none;stroke:#8c8e8f;stroke-width:1;stroke-linecap:round;stroke-linejoin:round;stroke-miterlimit:4;stroke-opacity:1;stroke-dasharray:none;stroke-dashoffset:0;marker:none;visibility:visible;display:inline;overflow:visible;enable-background:accumulate"
       id="rect4980-5-0"
       width="531.42859"
       height="531.42859"
       x="2614.2856"
       y="-1870.495"
       inkscape:export-filename="/home/jjouber/Documents/Perso/cooking_plan/website/res/no_picture.png"
       inkscape:export-xdpi="42.934441"
       inkscape:export-ydpi="42.934441" />
    <path
       style="color:#000000;fill:#b3b3b3;fill-opacity:1;fill-rule:evenodd;stroke:#b3b3b3;stroke-width:11.14395905;stroke-linecap:round;stroke-linejoin:round;stroke-miterlimit:4;stroke-opacity:1;stroke-dasharray:none;stroke-dashoffset:0;marker:none;visibility:visible;display:inline;overflow:visible;enable-background:accumulate"
       d="m 2807.1686,-1790.7853 -21.6856,39.3664 44.6172,57.0768 c 16.6039,-8.3142 35.3445,-12.9936 55.1784,-12.9936 68.1517,0 123.4095,55.2579 123.4095,123.4095 0,30.6269 -11.1649,58.6451 -29.6363,80.2162 l 57.2253,73.2448 20.4991,0 c 33.261,0 60.0434,-26.7825 60.0434,-60.0435 l 0,-176.5408 c 0,-33.2609 -26.7824,-60.0434 -60.0434,-60.0434 l -55.7717,0 -32.484,-63.6924 -161.3519,0 z m -103.2665,63.6924 c -33.261,0 -60.0435,26.7825 -60.0435,60.0434 l 0,176.5408 c 0,33.261 26.7825,60.0435 60.0435,60.0435 l 260.1092,0 -31.0006,-39.6631 c -14.6846,6.166 -30.8068,9.582 -47.7321,9.582 -68.152,0 -123.4095,-55.2281 -123.4095,-123.3799 0,-27.6866 9.1371,-53.2503 24.5334,-73.8379 l -54.1992,-69.3288 -28.3012,0 z m 355.366,24.0588 c 17.9511,0 32.484,14.5329 32.484,32.484 0,17.9511 -14.5329,32.5137 -32.484,32.5137 -17.951,0 -32.5136,-14.5626 -32.5136,-32.5137 0,-17.9511 14.5626,-32.484 32.5136,-32.484 z m -174.9982,48.0289 c -7.3094,0 -14.3753,1.0837 -21.0331,3.0851 l 83.7464,107.1823 c 6.5126,-10.9163 10.2644,-23.6564 10.2644,-37.2897 0,-40.2962 -32.6819,-72.9777 -72.9777,-72.9777 z m -64.8493,39.5443 c -5.1784,10.0237 -8.1284,21.3758 -8.1284,33.4334 0,40.296 32.6815,72.948 72.9777,72.948 5.789,0 11.39,-0.6839 16.7908,-1.958 l -81.6401,-104.4234 z"
       id="rect3029-7"
       inkscape:connector-curvature="0" />
    <rect
       style="opacity:0.01000001;color:#000000;fill:none;stroke:#8c8e8f;stroke-width:1;stroke-linecap:round;stroke-linejoin:round;stroke-miterlimit:4;stroke-opacity:1;stroke-dasharray:none;stroke-dashoffset:0;marker:none;visibility:visible;display:inline;overflow:visible;enable-background:accumulate"
       id="rect4980-5-0-8"
       width="531.42859"
       height="531.42859"
       x="2637.1428"
       y="-1181.9236"
       inkscape:export-filename="/home/jjouber/Documents/Perso/cooking_plan/website/res/time_slot.png"
       inkscape:export-xdpi="21.636337"
       inkscape:export-ydpi="21.636337" />
    <g
       id="g3814"
       transform="translate(0,-14)">
      <path
         id="path3021"
         transform="translate(0,-1947.6378)"
         d="m 2902.1562,807.5625 c -131.9197,0 -238.875,106.95529 -238.875,238.875 0,131.9197 106.9553,238.8437 238.875,238.8437 131.9198,0 238.8438,-106.924 238.8438,-238.8437 0,-131.91971 -106.924,-238.875 -238.8438,-238.875 z m 0.8438,62.125 c 98.0842,0 177.5938,79.50958 177.5938,177.5937 0,98.0842 -79.5096,177.5938 -177.5938,177.5938 -98.0842,0 -177.5938,-79.5096 -177.5938,-177.5938 0,-98.08412 79.5096,-177.5937 177.5938,-177.5937 z"
         style="color:#000000;fill:#2887c6;fill-opacity:1;fill-rule:evenodd;stroke:#2887c6;stroke-width:6.84791422;stroke-linecap:round;stroke-linejoin:round;stroke-miterlimit:4;stroke-opacity:1;stroke-dasharray:none;stroke-dashoffset:0;marker:none;visibility:visible;display:inline;overflow:visible;enable-background:accumulate"
         inkscape:connector-curvature="0" />
      <path
         sodipodi:nodetypes="ccc"
         transform="translate(0,-1947.6378)"
         inkscape:connector-curvature="0"
         id="path3810"
         d="m 2840.5489,950.40049 54.5483,102.02541 88.1581,-0.5917"
         style="fill:none;stroke:#2887c6;stroke-width:60;stroke-linecap:round;stroke-linejoin:round;stroke-miterlimit:4;stroke-opacity:1;stroke-dasharray:none" />
    </g>
    <rect
       style="opacity:0.01000001;color:#000000;fill:none;stroke:#8c8e8f;stroke-width:1;stroke-linecap:round;stroke-linejoin:round;stroke-miterlimit:4;stroke-opacity:1;stroke-dasharray:none;stroke-dashoffset:0;marker:none;visibility:visible;display:inline;overflow:visible;enable-background:accumulate"
       id="rect4980-5-0-8-8"
       width="531.42859"
       height="531.42859"
       x="1831.4286"
       y="-1164.7806"
       inkscape:export-filename="/home/jjouber/Documents/Perso/cooking_plan/website/res/price.png"
       inkscape:export-xdpi="21.637608"
       inkscape:export-ydpi="21.637608" />
    <path
       style="color:#000000;fill:#2887c6;fill-opacity:1;fill-rule:evenodd;stroke:#2887c6;stroke-width:6.84791422;stroke-linecap:round;stroke-linejoin:round;stroke-miterlimit:4;stroke-opacity:1;stroke-dasharray:none;stroke-dashoffset:0;marker:none;visibility:visible;display:inline;overflow:visible;enable-background:accumulate"
       d="m 2096.4419,-1136.928 c -131.9195,0 -238.875,106.9554 -238.875,238.87497 0,131.9199 106.9555,238.8438 238.875,238.8438 131.92,0 238.8438,-106.9239 238.8438,-238.8438 0,-131.91957 -106.9238,-238.87497 -238.8438,-238.87497 z m 15.5626,83.9688 c 23.7987,-0.1637 48.4345,3.2219 71.125,10.4062 2.2038,0.2756 11.2992,1.8202 18.875,10.1875 4.0919,4.5195 5.965,10.2304 6.5312,14.6563 0.5664,4.4259 0.2812,7.8713 0.2812,10.4375 0,5.4798 -1.4011,10.82967 -4.7187,15.68747 -3.3175,4.85781 -9.3972,9.27653 -16.6563,9.75 -6.1616,0.40193 -11.46,-1.05981 -15.1874,-2.6875 -3.0286,-1.32249 -5.9488,-3.08961 -6.0626,-3.25 -27.2984,-14.08367 -43.8906,-14.79927 -71.7812,-9.625 -13.6995,2.5416 -31.5976,14.3123 -43.6875,27.40625 -6.045,6.54696 -10.6853,13.39159 -13.0313,18.625 -0.5418,1.20875 -0.8912,2.25705 -1.1562,3.1875 3.6406,0.39129 8.1112,0.69629 13.375,0.8125 12.2143,0.26965 26.1507,-0.12104 33.0938,-0.3125 0.052,-3.1e-4 0.1042,-3.1e-4 0.1562,0 0,0 14.9968,-0.22249 30.5312,-0.0937 7.7673,0.0644 15.6276,0.2144 22.0626,0.53125 3.2175,0.15843 6.0631,0.32918 8.5624,0.625 1.2499,0.14792 2.4109,0.30487 3.7188,0.59375 1.308,0.28889 2.4597,0.0502 5.9375,2.53125 5.9085,4.21518 7.4159,12.21245 6.75,16.75005 -0.6659,4.5375 -2.275,7.606 -4,10.3124 -2.3776,3.7305 -4.9491,10.1416 -14.7813,13.9688 -5.8529,2.2784 -8.4153,1.6809 -13.0312,1.8125 -4.6158,0.1316 -10.0067,0.0672 -15.8125,-0.0625 -11.6114,-0.2595 -24.7606,-0.8121 -34.0937,-0.9062 -11.4414,-0.1154 -24.6123,-0.552 -34.8126,-0.3126 -4.6821,0.1099 -8.4428,0.4083 -11,0.7813 -0.3601,1.1156 -0.4278,2.112 -0.7187,5.9375 -0.098,1.3011 -0.031,2.4355 -0.031,3.7188 3.7772,0.2989 8.4792,0.5395 13.375,0.6562 10.8128,0.2577 21.4376,0.125 21.4376,0.125 0.052,-3e-4 0.1042,-3e-4 0.1562,0 12.5569,0 23.0129,-0.367 31.1562,-0.375 4.0718,-0.004 7.5293,0.0744 10.7813,0.4062 3.2521,0.3319 6.2801,-0.4987 11.8437,4.4376 3.4556,3.0661 6.015,8.6253 5.9063,13.5624 -0.1088,4.9372 -1.8947,8.8892 -4.1875,12.5313 -1.8855,2.9928 -6.8918,11.1811 -17,13.8125 -0.01,0.003 -0.021,-0.003 -0.031,0 -4.7068,1.2163 -7.4465,0.9507 -11.75,1.0312 -4.3127,0.0808 -9.1874,0.04 -13.875,-0.0624 -9.2806,-0.2028 -17.5492,-0.5858 -17.7188,-0.5938 0,0 -0.1875,1e-4 -0.1875,0 -0.1781,-0.006 -8.7455,-0.2835 -17.5,-0.0625 -2.1038,0.0531 -3.6261,0.2576 -5.5625,0.375 9.1986,30.5379 25.6443,45.5475 56,51.0937 27.0242,4.9375 53.1517,1.7995 77.9062,-12.3437 4.1192,-2.3535 5.9093,-2.5067 9.3126,-3.2187 1.7017,-0.3561 3.4824,-0.6564 5.6562,-0.7188 2.1738,-0.0624 4.7905,-0.4449 9.2188,2.125 4.6872,2.7204 8.8457,7.7619 10.3437,12.5625 1.4979,4.8006 1.25,8.4203 1.25,11.5 0,5.5187 1.1787,15.6211 -6.25,24.6875 -5.6313,6.8732 -12.6883,9.2382 -17.5313,10.8438 -9.2819,3.0771 -21.1902,4.8254 -27.6874,6.0937 -20.6352,4.028 -56.8372,4.7452 -77.3126,1.4687 -59.0342,-9.4467 -99.758,-44.86 -116.75,-101.7187 -0.046,-0.1541 -0.085,-0.313 -0.125,-0.4687 0,0 -0.1581,-0.623 -0.4687,-1.375 -1.0137,-0.2252 -3.1508,-0.8646 -5.3125,-0.9688 -3.4588,-0.1668 -6.375,0.0625 -6.375,0.0625 -0.3778,0.0344 -0.7457,0.0624 -1.125,0.0625 -5.8281,0 -9.7851,0.1995 -13.7188,0.0312 -3.9337,-0.1682 -9.6833,-0.9411 -14.1562,-5.2812 -3.5527,-3.4473 -5.3467,-10.2073 -4.625,-14.5625 0.7217,-4.3552 2.3455,-7.2584 4.2812,-10.4375 1.7508,-2.8756 4.9573,-8.0419 11,-11.4375 6.7506,-3.7932 11.3377,-3.2162 15.4376,-3.2813 3.8734,-0.0613 6.7172,0.2177 7.0624,0.25 0,0 1.6261,0.0607 3.4688,-0.125 0.1725,-0.0173 0.1834,-0.087 0.3438,-0.125 0.01,-0.063 0.021,-0.0584 0.031,-0.125 0.191,-1.6259 0.1112,-3.4796 0.031,-4.6874 -0.1242,-1.8823 -0.1327,-2.6709 -0.4062,-3.9376 -0.079,-0.3639 -0.156,-0.5348 -0.25,-0.7812 -0.678,-0.2287 -2.0385,-0.7987 -3.5938,-0.9688 -2.8173,-0.308 -5.25,-0.2187 -5.25,-0.2187 -0.2322,0.015 -0.4547,0.0283 -0.6874,0.0313 -5.8225,0 -10.8802,-0.0345 -14.75,-0.1563 -1.9349,-0.0609 -3.5398,-0.119 -5.125,-0.2813 -0.7928,-0.0811 -1.5037,-0.1449 -2.75,-0.4374 -0.6232,-0.1463 -1.3553,-0.3287 -2.6876,-0.9376 -1.3323,-0.6088 -4.136,-1.2813 -6.4374,-6.4687 -2.2485,-5.0687 -1.0822,-6.6475 -0.8438,-7.875 0.2386,-1.2275 0.4832,-1.9127 0.7188,-2.5625 0.4714,-1.2996 0.9519,-2.2975 1.5,-3.4062 1.0933,-2.2117 2.4867,-4.6945 4.1562,-7.4376 l 0,-0.0312 5.5312,-9.125 c 2.2337,-3.68203 6.4746,-6.0575 10.7813,-6.0625 l 16.5937,0 c 4.8903,0 5.6737,-0.1035 7.5626,-0.1875 8.8407,-26.89259 18.0595,-44.6476 32.1874,-60.12497 11.1424,-12.2062 26.7792,-23.7882 41.9376,-31.125 19.8074,-9.587 44.2312,-14.373 69.875,-15.0625 1.5782,-0.043 3.1634,-0.052 4.75,-0.063 z"
       id="path3021-3"
       inkscape:connector-curvature="0" />
    <rect
       style="opacity:0.01;color:#000000;fill:none;stroke:#2887c6;stroke-width:1;stroke-linecap:round;stroke-linejoin:round;stroke-miterlimit:4;stroke-opacity:1;stroke-dasharray:none;stroke-dashoffset:0;marker:none;visibility:visible;display:inline;overflow:visible;enable-background:accumulate"
       id="rect4980-5-4"
       width="531.42859"
       height="531.42859"
       x="1033.3419"
       y="-1169.0073"
       inkscape:export-filename="/home/jjouber/Documents/Perso/cooking_plan/website/res/calendar.png"
       inkscape:export-xdpi="21.636318"
       inkscape:export-ydpi="21.636318" />
    <g
       id="g3973">
      <path
         id="rect3873"
         transform="translate(0,-1947.6378)"
         d="M 1125.25 869.21875 C 1081.692 869.21875 1046.5938 908.54685 1046.5938 957.34375 L 1046.5938 1206.8125 C 1046.5938 1255.6094 1081.692 1294.875 1125.25 1294.875 L 1471.2188 1294.875 C 1514.7766 1294.875 1549.8438 1255.6094 1549.8438 1206.8125 L 1549.8438 957.34375 C 1549.8438 908.54685 1514.7766 869.21875 1471.2188 869.21875 L 1463.4375 869.21875 L 1463.4375 900.28125 C 1463.4375 926.30404 1442.4915 947.25 1416.4688 947.25 C 1390.446 947.25 1369.5 926.30404 1369.5 900.28125 L 1369.5 869.21875 L 1229.875 869.21875 L 1229.875 900.75 C 1229.875 926.77279 1208.8978 947.75 1182.875 947.75 C 1156.8522 947.75 1135.9062 926.77279 1135.9062 900.75 L 1135.9062 869.21875 L 1125.25 869.21875 z M 1139.1562 985.84375 L 1453.0312 985.84375 C 1479.2667 985.84375 1500.4062 1009.5467 1500.4062 1038.9375 L 1500.4062 1189.1562 C 1500.4062 1218.5472 1479.2666 1242.2188 1453.0312 1242.2188 L 1139.1562 1242.2188 C 1112.9209 1242.2188 1091.7812 1218.5473 1091.7812 1189.1562 L 1091.7812 1038.9375 C 1091.7812 1009.5467 1112.9209 985.84375 1139.1562 985.84375 z "
         style="color:#000000;fill:#2887c6;fill-opacity:1;fill-rule:evenodd;stroke:#2887c6;stroke-width:1.16945636;stroke-linecap:round;stroke-linejoin:round;stroke-miterlimit:4;stroke-opacity:1;stroke-dasharray:none;stroke-dashoffset:0;marker:none;visibility:visible;display:inline;overflow:visible;enable-background:accumulate" />
      <rect
         ry="25.701696"
         y="-1156.5294"
         x="1157.8694"
         height="131.73248"
         width="51.403393"
         id="rect3895-49"
         style="color:#000000;fill:#2887c6;fill-opacity:1;fill-rule:evenodd;stroke:#2887c6;stroke-width:0.68402791;stroke-linecap:round;stroke-linejoin:round;stroke-miterlimit:4;stroke-opacity:1;stroke-dasharray:none;stroke-dashoffset:0;marker:none;visibility:visible;display:inline;overflow:visible;enable-background:accumulate" />
      <rect
         ry="25.701696"
         y="-1156.0579"
         x="1390.5322"
         height="131.73248"
         width="51.403393"
         id="rect3895-49-0"
         style="color:#000000;fill:#2887c6;fill-opacity:1;fill-rule:evenodd;stroke:#2887c6;stroke-width:0.68402791;stroke-linecap:round;stroke-linejoin:round;stroke-miterlimit:4;stroke-opacity:1;stroke-dasharray:none;stroke-dashoffset:0;marker:none;visibility:visible;display:inline;overflow:visible;enable-background:accumulate" />
      <path
         sodipodi:nodetypes="ccc"
         inkscape:connector-curvature="0"
         id="path3953"
         d="m 1239.3355,-754.80069 -10e-5,-152.53306 -41.4162,11.11169"
         style="fill:none;stroke:#2887c6;stroke-width:40;stroke-linecap:round;stroke-linejoin:round;stroke-miterlimit:4;stroke-opacity:1;stroke-dasharray:none" />
      <path
         sodipodi:nodetypes="ccc"
         inkscape:connector-curvature="0"
         id="path3953-0"
         d="m 1361.3368,-754.64682 -10e-5,-152.5331 -41.4162,11.1117"
         style="fill:none;stroke:#2887c6;stroke-width:40;stroke-linecap:round;stroke-linejoin:round;stroke-miterlimit:4;stroke-opacity:1;stroke-dasharray:none" />
    </g>
    <path
       style="color:#000000;fill:#2887c6;fill-opacity:1;fill-rule:evenodd;stroke:#2887c6;stroke-width:6.84791422;stroke-linecap:round;stroke-linejoin:round;stroke-miterlimit:4;stroke-opacity:1;stroke-dasharray:none;stroke-dashoffset:0;marker:none;visibility:visible;display:inline;overflow:visible;enable-background:accumulate"
       d="m 2047.6118,-439.59719 c -131.9195,0 -238.875,106.9555 -238.875,238.875 0,131.9199 106.9555,238.8438 238.875,238.8438 131.92,0 238.8437,-106.9239 238.8437,-238.8438 0,-131.9195 -106.9237,-238.875 -238.8437,-238.875 z m -85.375,69.7188 c 0.4227,0 0.9404,0.0157 1.625,0.125 3.3649,0.5379 5.163,2.0649 8.1875,4.1874 3.0245,2.1226 6.5904,4.9528 10.625,8.3126 8.0691,6.7195 17.8448,15.5164 27.3125,24.4687 9.4677,8.9523 18.6455,18.043 25.5625,25.375 3.4585,3.666 6.309,6.8885 8.4375,9.5 1.0643,1.3057 1.9547,2.4605 2.6563,3.5313 0.7014,1.0707 1.4049,1.6624 1.6562,3.9062 0.2265,2.0235 -0.1291,3.5352 -0.5625,5.4062 -0.4334,1.8711 -1.0413,3.9464 -1.7813,6.25 -1.4799,4.6074 -3.4511,10.0405 -5.3437,15.4063 -1.8926,5.3658 -3.7019,10.6857 -4.8437,14.9063 -0.571,2.1102 -0.9571,3.942 -1.125,5.25 -0.1156,0.8992 -0.051,1.5472 -0.063,1.6874 0.1734,0.338 1.3197,2.2754 2.9688,4.4063 0.5219,0.6745 1.2759,1.5158 1.875,2.25 10.4022,-19.7942 21.9713,-39.2156 33.5,-51.8437 24.9313,-27.3088 57.7447,-60.083 94.1562,-60.5 6.0993,-0.07 13.163,2.478 18.375,6.9374 1.7839,1.5266 3.4001,3.3626 4.1876,5.9376 0.7873,2.5749 0.2467,5.8613 -1.4688,8.2187 -3.9404,5.4146 -19.7412,24.2949 -40.3125,48.7187 -19.7502,23.4489 -43.4965,51.4072 -64.0937,75.625 l 110,119.3126 a 4.6517017,4.6517017 0 0 1 -0.375,6.6562 l -43.875,38.4688 a 4.6517017,4.6517017 0 0 1 -6.4688,-0.3438 l -101.0312,-109.5938 -87.5626,103.8126 c -4.1079,4.8724 -11.5368,6.1819 -16.4374,1.875 l -0.031,0 0,0.0312 -30.2187,-26.625 a 4.6517017,4.6517017 0 0 1 0,-0.0312 c -4.9129,-4.3364 -4.6484,-11.8044 -0.5313,-16.687599 l 93.2187,-110.593701 c 2.3905,-2.8352 5.9388,-4.4028 9.4376,-4.4375 -0.027,-0.027 -0.036,-0.0355 -0.063,-0.0625 -2.4821,-2.4931 -5.0707,-4.952 -7.1874,-6.75 -1.8523,-1.5732 -3.9231,-2.5421 -3.625,-2.5937 -4.3433,-0.7528 -14.5999,1.4007 -24.4376,3.7812 -5.0191,1.2146 -10.0506,2.4085 -14.6874,2.9375 -4.6369,0.529 -9.0132,0.6445 -13,-1.625 -2.3297,-1.3262 -4.0079,-3.104 -6.5626,-5.7813 -2.5546,-2.6772 -5.5983,-6.1606 -9,-10.1562 -6.8034,-7.9912 -14.9347,-18.1217 -22.8124,-28.2812 -7.8777,-10.1596 -15.4554,-20.2925 -21.0938,-28.2813 -2.8192,-3.9944 -5.1682,-7.4467 -6.8438,-10.1563 -0.8377,-1.3547 -1.5074,-2.508 -2.0312,-3.5624 -0.5238,-1.0545 -1.2514,-1.374 -1.0938,-4.0938 0.2442,-4.2152 2.3462,-7.7646 5.125,-10.3125 2.779,-2.5479 6.345,-4.2774 10.2813,-4.3125 2.9689,-0.0262 3.331,0.9557 4.25,1.625 0.919,0.6693 1.8247,1.4655 2.875,2.4375 2.1008,1.944 4.6668,4.5852 7.625,7.7187 5.9164,6.2671 13.3404,14.5366 20.8437,22.7813 7.5035,8.2447 15.0629,16.4709 21.1563,22.5313 3.0467,3.0301 5.7518,5.5133 7.75,7.125 0.9991,0.8058 1.8526,1.3717 2.3437,1.6562 0.037,0.0212 0,0.0153 0.031,0.0312 2.5024,-0.1586 5.8347,-1.2052 8.375,-2.875 2.1659,-1.4236 3.3355,-3.0223 3.875,-4.4374 -0.317,-0.4169 -0.5775,-0.7514 -1.0625,-1.3438 -1.5746,-1.923 -3.9305,-4.6447 -6.7812,-7.8438 -5.7015,-6.398 -13.4024,-14.7797 -21.125,-23.25 -7.7227,-8.4702 -15.4614,-17.0445 -21.375,-23.9062 -2.9569,-3.4308 -5.4691,-6.4237 -7.3126,-8.8438 -0.9216,-1.21 -1.6366,-2.2315 -2.25,-3.2187 -0.6134,-0.9872 -1.2768,-1.5051 -1.5,-3.7187 -0.5028,-4.9882 2.2871,-8.9797 5.5938,-11.7813 3.2979,-2.7948 7.4173,-4.7118 12,-4.3437 2.5411,0.204 2.9416,0.9873 3.875,1.6562 0.9334,0.6689 1.906,1.4586 3,2.4375 2.188,1.9578 4.8684,4.6146 7.9375,7.75 6.1382,6.2709 13.8058,14.5037 21.4687,22.75 7.663,8.2463 15.3026,16.5058 21.3438,22.6875 3.0206,3.0909 5.6539,5.6592 7.5938,7.4062 0.9432,0.8495 1.7104,1.4992 2.2187,1.875 0.086,-0.0413 0.5357,-0.0696 1.5937,-0.625 1.2685,-0.6657 2.8468,-1.8359 4.25,-3.2187 2.6689,-2.63 4.3425,-6.0525 4.4688,-7.6875 -0.2902,-0.5185 -0.8544,-1.3859 -1.5938,-2.4062 -1.4786,-2.0407 -3.6789,-4.8142 -6.375,-8 -5.3921,-6.3719 -12.6716,-14.4189 -19.9374,-22.5313 -7.266,-8.1124 -14.5443,-16.2623 -20.0626,-22.9063 -2.7591,-3.3219 -5.0654,-6.2764 -6.7812,-8.75 -0.858,-1.2367 -1.5562,-2.3342 -2.125,-3.4374 -0.5688,-1.1033 -1.1957,-2.0153 -1.1562,-4.0938 0.075,-3.9649 2.1087,-7.1232 4.625,-9.5625 2.5163,-2.4393 5.7398,-4.3437 9.7187,-4.3437 z m 72.3437,128.3124 c -0.01,-0.0185 -0.091,-0.1482 -0.094,-0.1562 0.074,0.1906 0.088,0.22 0.094,0.1562 z m -62.0624,-8.3437 c 0.029,0.0389 0.2444,0.309 0.3124,0.4063 -0.037,-0.0353 -0.2526,-0.3053 -0.3124,-0.4063 z"
       id="path3021-3-9"
       inkscape:connector-curvature="0" />
    <rect
       style="opacity:0.01000001;color:#000000;fill:none;stroke:#8c8e8f;stroke-width:1;stroke-linecap:round;stroke-linejoin:round;stroke-miterlimit:4;stroke-opacity:1;stroke-dasharray:none;stroke-dashoffset:0;marker:none;visibility:visible;display:inline;overflow:visible;enable-background:accumulate"
       id="rect4980-5-0-8-8-1"
       width="531.42859"
       height="531.42859"
       x="1778.8345"
       y="-465.94125"
       inkscape:export-filename="/home/jjouber/Documents/Perso/cooking_plan/website/res/course.png"
       inkscape:export-xdpi="21.636253"
       inkscape:export-ydpi="21.636253" />
    <path
       style="color:#000000;fill:#2887c6;fill-opacity:1;fill-rule:evenodd;stroke:#2887c6;stroke-width:6.84791422;stroke-linecap:round;stroke-linejoin:round;stroke-miterlimit:4;stroke-opacity:1;stroke-dasharray:none;stroke-dashoffset:0;marker:none;visibility:visible;display:inline;overflow:visible;enable-background:accumulate"
       d="m 1285.5178,-448.74947 c -131.9194,0 -238.875,106.9556 -238.875,238.875 0,131.919902 106.9556,238.843802 238.875,238.843802 131.9201,0 238.8438,-106.9239 238.8438,-238.843802 0,-131.9194 -106.9238,-238.875 -238.8438,-238.875 z m 0.6562,43.3126 c 40.9033,-0.0815 73.4736,25.9137 86.6876,58.4062 13.2138,32.4925 7.7986,73.9241 -22.0313,101.8125 -0.8769,0.8198 -1.4075,1.3085 -2.3125,2.1563 1.0215,0.558 1.8826,1.0507 2.9062,1.5937 34.8278,18.4729 61.039,51.766 71.25,90.0625 5.6162,21.0636 5.4488,44.6955 0.5313,66.000002 -1.3429,5.8174 -2.9999,12.5939 -7.875,19.5625 -4.875,6.9686 -10.853,10.9172 -15.8125,14.0625 -40.0665,25.4092 -99.4397,35.2343 -149,27.1875 -22.8737,-3.7139 -49.7544,-12.8948 -70.1562,-23.9375 -7.3626,-3.985 -13.0707,-6.3744 -19.875,-13.5938 -6.8043,-7.2193 -9.3606,-16.1492 -10.8126,-21.75 -5.6457,-21.776902 -5.7298,-45.735502 0.094,-67.531202 10.3854,-38.8726 36.8253,-71.766 72.5938,-90.8125 0.9504,-0.5061 1.2117,-0.7473 2.0624,-1.2187 -0.1924,-0.1888 -0.1136,-0.1502 -0.3124,-0.3438 -12.9787,-12.6352 -21.549,-24.4383 -25.75,-37.2188 -19.8547,-60.4006 24.5549,-124.3116 87.8124,-124.4374 z"
       id="path3021-3-9-1"
       inkscape:connector-curvature="0" />
    <rect
       style="opacity:0.01000001;color:#000000;fill:none;stroke:#8c8e8f;stroke-width:1;stroke-linecap:round;stroke-linejoin:round;stroke-miterlimit:4;stroke-opacity:1;stroke-dasharray:none;stroke-dashoffset:0;marker:none;visibility:visible;display:inline;overflow:visible;enable-background:accumulate"
       id="rect4980-5-0-8-8-1-5"
       width="531.42859"
       height="531.42859"
       x="1016.7427"
       y="-475.10391"
       inkscape:export-filename="/home/jjouber/Documents/Perso/cooking_plan/website/res/customer.png"
       inkscape:export-xdpi="21.636253"
       inkscape:export-ydpi="21.636253" />
    <path
       style="color:#000000;fill:#2887c6;fill-opacity:1;fill-rule:evenodd;stroke:#2887c6;stroke-width:6.84791422;stroke-linecap:round;stroke-linejoin:round;stroke-miterlimit:4;stroke-opacity:1;stroke-dasharray:none;stroke-dashoffset:0;marker:none;visibility:visible;display:inline;overflow:visible;enable-background:accumulate"
       d="M 1279.9062 2126.25 C 1147.987 2126.25 1041.0312 2233.2056 1041.0312 2365.125 C 1041.0312 2497.0449 1147.987 2603.9688 1279.9062 2603.9688 C 1411.8265 2603.9688 1518.75 2497.0449 1518.75 2365.125 C 1518.75 2233.2056 1411.8264 2126.25 1279.9062 2126.25 z M 1187 2189.6875 L 1372.9375 2189.6875 C 1387.3216 2189.6875 1398.9062 2204.191 1398.9062 2222.1875 L 1398.9062 2246.3125 C 1395.056 2299.3264 1369.0087 2344.332 1332.4688 2366.5938 C 1369.8145 2389.4811 1396.1399 2436.1187 1398.9062 2490.7812 L 1398.9062 2506.25 C 1398.9062 2524.2465 1387.3216 2538.75 1372.9375 2538.75 L 1187 2538.75 C 1174.601 2538.75 1164.2987 2527.9666 1161.6875 2513.4688 C 1161.3837 2509.1306 1161.2188 2504.7493 1161.2188 2500.3125 C 1161.2188 2441.4524 1188.5278 2390.5896 1228.1562 2366.4375 C 1188.6608 2342.2251 1161.4688 2291.4259 1161.4688 2232.6875 C 1161.4688 2225.1094 1161.9081 2217.6795 1162.7812 2210.4062 C 1166.5388 2198.2728 1175.9437 2189.6875 1187 2189.6875 z "
       transform="translate(0,-1947.6378)"
       id="path3021-3-9-1-3" />
    <rect
       style="opacity:0.01000001;color:#000000;fill:none;stroke:#8c8e8f;stroke-width:1;stroke-linecap:round;stroke-linejoin:round;stroke-miterlimit:4;stroke-opacity:1;stroke-dasharray:none;stroke-dashoffset:0;marker:none;visibility:visible;display:inline;overflow:visible;enable-background:accumulate"
       id="rect4980-5-0-8-8-1-5-3"
       width="531.42859"
       height="531.42859"
       x="1011.1185"
       y="152.27211"
       inkscape:export-filename="/home/jjouber/Documents/Perso/cooking_plan/website/res/time.png"
       inkscape:export-xdpi="21.636253"
       inkscape:export-ydpi="21.636253" />
  </g>
</svg>
