<?xml version="1.0" encoding="UTF-8" standalone="no"?>
<!-- Created with Inkscape (http://www.inkscape.org/) -->

<svg
   xmlns:dc="http://purl.org/dc/elements/1.1/"
   xmlns:cc="http://creativecommons.org/ns#"
   xmlns:rdf="http://www.w3.org/1999/02/22-rdf-syntax-ns#"
   xmlns:svg="http://www.w3.org/2000/svg"
   xmlns="http://www.w3.org/2000/svg"
   xmlns:sodipodi="http://sodipodi.sourceforge.net/DTD/sodipodi-0.dtd"
   xmlns:inkscape="http://www.inkscape.org/namespaces/inkscape"
   width="6000"
   height="3000"
   id="svg2"
   version="1.1"
   inkscape:version="0.48.4 r9939"
   sodipodi:docname="icons.svg">
  <defs
     id="defs4" />
  <sodipodi:namedview
     id="base"
     pagecolor="#ffffff"
     bordercolor="#666666"
     borderopacity="1.0"
     inkscape:pageopacity="0.0"
     inkscape:pageshadow="2"
     inkscape:zoom="0.175"
     inkscape:cx="-689.73403"
     inkscape:cy="1047.434"
     inkscape:document-units="px"
     inkscape:current-layer="layer1"
     showgrid="false"
     inkscape:window-width="1920"
     inkscape:window-height="1014"
     inkscape:window-x="0"
     inkscape:window-y="27"
     inkscape:window-maximized="1" />
  <metadata
     id="metadata7">
    <rdf:RDF>
      <cc:Work
         rdf:about="">
        <dc:format>image/svg+xml</dc:format>
        <dc:type
           rdf:resource="http://purl.org/dc/dcmitype/StillImage" />
        <dc:title></dc:title>
      </cc:Work>
    </rdf:RDF>
  </metadata>
  <g
     inkscape:label="Calque 1"
     inkscape:groupmode="layer"
     id="layer1"
     transform="translate(0,1947.6378)">
    <g
       id="g4148"
       transform="matrix(1.0326452,0,0,1.0326452,-303.16118,9.838773)"
       style="fill:#2887c6;fill-opacity:1;stroke:#2887c6;stroke-opacity:1">
      <path
         inkscape:connector-curvature="0"
         id="path3883-5"
         d="m 1771.2812,-1544.8878 c -13.1739,0 -25.4465,3.8401 -35.8124,10.4687 -0.031,-1.1697 -0.044,-2.3344 -0.094,-3.5 l -379.9062,0 c -0.118,2.7476 -0.1876,5.5047 -0.1876,8.2813 0,87.2545 58.7879,160.7876 138.9063,183.1562 l 102.4687,0 c 50.9774,-14.2325 93.3177,-49.1725 117.375,-95.1875 11.7949,19.4545 33.0205,32.4063 57.25,32.4063 37.0578,0 67.0938,-30.3604 67.0938,-67.8125 0,-37.4521 -30.036,-67.8125 -67.0938,-67.8125 z m -0.7187,38.25 c 16.963,0 30.7187,13.7557 30.7187,30.7187 0,16.9631 -13.7557,30.7188 -30.7187,30.7188 -16.963,0 -30.7187,-13.7557 -30.7187,-30.7188 0,-16.963 13.7557,-30.7187 30.7187,-30.7187 z"
         style="color:#000000;fill:#2887c6;fill-opacity:1;stroke:#2887c6;stroke-width:12;stroke-linecap:round;stroke-linejoin:round;stroke-miterlimit:4;stroke-opacity:1;stroke-dasharray:none;stroke-dashoffset:0;marker:none;visibility:visible;display:inline;overflow:visible;enable-background:accumulate" />
      <path
         sodipodi:nodetypes="ssscsssss"
         inkscape:connector-curvature="0"
         id="path4100"
         d="m 1430.0842,-1578.0547 c -1.2083,-20.1669 38.174,-28.3654 36.3655,-48.4874 -1.4647,-16.2973 -40.5788,-32.1923 -40.9112,-55.0533 -0.2777,-19.1006 32.83,-46.9721 32.83,-46.9721 0,0 -15.3208,32.9271 -8.5863,46.4671 7.4001,14.8781 46.8911,32.9254 46.9721,58.5888 0.065,20.6429 -19.1839,36.1621 -35.3554,48.9924 -5.0756,4.027 -13.8399,9.3012 -20.2031,8.0812 -5.2626,-1.0089 -10.7912,-6.2678 -11.1116,-11.6167 z"
         style="fill:#2887c6;fill-opacity:1;stroke:#2887c6;stroke-width:12;stroke-linecap:round;stroke-linejoin:round;stroke-miterlimit:4;stroke-opacity:1;stroke-dasharray:none" />
      <path
         sodipodi:nodetypes="ssscsssss"
         inkscape:connector-curvature="0"
         id="path4100-0"
         d="m 1529.1726,-1581.082 c -1.2083,-20.1669 38.174,-28.3653 36.3655,-48.4873 -1.4647,-16.2973 -40.5788,-32.1924 -40.9112,-55.0533 -0.2777,-19.1006 32.83,-46.9721 32.83,-46.9721 0,0 -15.3208,32.927 -8.5863,46.467 7.4001,14.8782 46.8911,32.9254 46.9721,58.5889 0.065,20.6429 -19.1839,36.1621 -35.3554,48.9923 -5.0756,4.027 -13.8399,9.3012 -20.2031,8.0813 -5.2626,-1.009 -10.7912,-6.2679 -11.1116,-11.6168 z"
         style="fill:#2887c6;fill-opacity:1;stroke:#2887c6;stroke-width:12;stroke-linecap:round;stroke-linejoin:round;stroke-miterlimit:4;stroke-opacity:1;stroke-dasharray:none" />
      <path
         sodipodi:nodetypes="ssscsssss"
         inkscape:connector-curvature="0"
         id="path4100-0-6"
         d="m 1635.0609,-1576.9196 c -1.2083,-20.1669 38.174,-28.3653 36.3655,-48.4873 -1.4647,-16.2973 -40.5788,-32.1924 -40.9112,-55.0533 -0.2777,-19.1006 32.83,-46.9721 32.83,-46.9721 0,0 -15.3208,32.927 -8.5863,46.467 7.4001,14.8782 46.8911,32.9254 46.9721,58.5889 0.065,20.6429 -19.1839,36.1621 -35.3554,48.9923 -5.0756,4.027 -13.8399,9.3012 -20.2031,8.0813 -5.2626,-1.009 -10.7912,-6.2679 -11.1116,-11.6168 z"
         style="fill:#2887c6;fill-opacity:1;stroke:#2887c6;stroke-width:12;stroke-linecap:round;stroke-linejoin:round;stroke-miterlimit:4;stroke-opacity:1;stroke-dasharray:none" />
    </g>
    <rect
       style="opacity:0;color:#000000;fill:none;fill-opacity:1;fill-rule:evenodd;stroke:#2887c6;stroke-width:1;stroke-linecap:round;stroke-linejoin:round;stroke-miterlimit:4;stroke-opacity:1;stroke-dasharray:none;stroke-dashoffset:0;marker:none;visibility:visible;display:inline;overflow:visible;enable-background:accumulate"
       id="rect4980"
       width="531.42859"
       height="531.42859"
       x="1080"
       y="97.14286"
       transform="translate(0,-1947.6378)"
       inkscape:export-filename="/home/jjouber/Documents/Perso/cooking_plan/website/res/favicon.png"
       inkscape:export-xdpi="4.0570059"
       inkscape:export-ydpi="4.0570059" />
    <rect
       style="opacity:0.97132616;color:#000000;fill:none;stroke:#2887c6;stroke-width:1;stroke-linecap:round;stroke-linejoin:round;stroke-miterlimit:4;stroke-opacity:1;stroke-dasharray:none;stroke-dashoffset:0;marker:none;visibility:visible;display:inline;overflow:visible;enable-background:accumulate;fill-opacity:1"
       id="rect4980-5"
       width="531.42859"
       height="531.42859"
       x="1955.6873"
       y="-1845.4543"
       inkscape:export-filename="/home/jjouber/Documents/Perso/cooking_plan/website/res/favicon.png"
       inkscape:export-xdpi="4.0570059"
       inkscape:export-ydpi="4.0570059" />
    <path
       style="color:#000000;fill:#b3b3b3;fill-opacity:1;fill-rule:evenodd;stroke:#b3b3b3;stroke-width:11.73908519999999989;stroke-linecap:round;stroke-linejoin:round;stroke-miterlimit:4;stroke-opacity:1;stroke-dasharray:none;stroke-dashoffset:0;marker:none;visibility:visible;display:inline;overflow:visible;enable-background:accumulate"
       d="m 2145.6036,-1769.2989 -36.9904,67.1024 -71.8101,0 c -35.0373,0 -63.2504,28.2132 -63.2504,63.2504 l 0,185.9605 c 0,35.0373 28.2131,63.2505 63.2504,63.2505 l 371.7376,0 c 35.0373,0 63.2504,-28.2132 63.2504,-63.2505 l 0,-185.9605 c 0,-35.0372 -28.2131,-63.2504 -63.2504,-63.2504 l -58.7566,0 -34.239,-67.1024 -169.9415,0 z m 82.2653,87.9209 c 71.7913,0 129.9859,58.1946 129.9859,129.986 0,71.7912 -58.1946,129.9858 -129.9859,129.9858 -71.7914,0 -129.9859,-58.1946 -129.9859,-129.9858 0,-71.7914 58.1945,-129.986 129.9859,-129.986 z m 183.2703,4.5244 c 18.9097,0 34.239,15.3293 34.239,34.239 0,18.9098 -15.3293,34.239 -34.239,34.239 -18.9097,0 -34.239,-15.3292 -34.239,-34.239 0,-18.9097 15.3293,-34.239 34.239,-34.239 z m -184.3403,50.5942 c -42.4481,0 -76.8544,34.437 -76.8544,76.885 0,42.448 34.4063,76.8543 76.8544,76.8543 42.4478,0 76.8849,-34.4063 76.8849,-76.8543 0,-42.448 -34.4371,-76.885 -76.8849,-76.885 z"
       id="rect3029"
       inkscape:connector-curvature="0" />
    <rect
       style="opacity:0.01;color:#000000;fill:none;stroke:#8c8e8f;stroke-width:1;stroke-linecap:round;stroke-linejoin:round;stroke-miterlimit:4;stroke-opacity:1;stroke-dasharray:none;stroke-dashoffset:0;marker:none;visibility:visible;display:inline;overflow:visible;enable-background:accumulate"
       id="rect4980-5-0"
       width="531.42859"
       height="531.42859"
       x="2614.2856"
       y="-1870.495"
       inkscape:export-filename="/home/jjouber/Documents/Perso/cooking_plan/website/res/no_picture.png"
       inkscape:export-xdpi="42.934441"
       inkscape:export-ydpi="42.934441" />
    <path
       style="color:#000000;fill:#b3b3b3;fill-opacity:1;fill-rule:evenodd;stroke:#b3b3b3;stroke-width:11.14395905;stroke-linecap:round;stroke-linejoin:round;stroke-miterlimit:4;stroke-opacity:1;stroke-dasharray:none;stroke-dashoffset:0;marker:none;visibility:visible;display:inline;overflow:visible;enable-background:accumulate"
       d="m 2807.1686,-1790.7853 -21.6856,39.3664 44.6172,57.0768 c 16.6039,-8.3142 35.3445,-12.9936 55.1784,-12.9936 68.1517,0 123.4095,55.2579 123.4095,123.4095 0,30.6269 -11.1649,58.6451 -29.6363,80.2162 l 57.2253,73.2448 20.4991,0 c 33.261,0 60.0434,-26.7825 60.0434,-60.0435 l 0,-176.5408 c 0,-33.2609 -26.7824,-60.0434 -60.0434,-60.0434 l -55.7717,0 -32.484,-63.6924 -161.3519,0 z m -103.2665,63.6924 c -33.261,0 -60.0435,26.7825 -60.0435,60.0434 l 0,176.5408 c 0,33.261 26.7825,60.0435 60.0435,60.0435 l 260.1092,0 -31.0006,-39.6631 c -14.6846,6.166 -30.8068,9.582 -47.7321,9.582 -68.152,0 -123.4095,-55.2281 -123.4095,-123.3799 0,-27.6866 9.1371,-53.2503 24.5334,-73.8379 l -54.1992,-69.3288 -28.3012,0 z m 355.366,24.0588 c 17.9511,0 32.484,14.5329 32.484,32.484 0,17.9511 -14.5329,32.5137 -32.484,32.5137 -17.951,0 -32.5136,-14.5626 -32.5136,-32.5137 0,-17.9511 14.5626,-32.484 32.5136,-32.484 z m -174.9982,48.0289 c -7.3094,0 -14.3753,1.0837 -21.0331,3.0851 l 83.7464,107.1823 c 6.5126,-10.9163 10.2644,-23.6564 10.2644,-37.2897 0,-40.2962 -32.6819,-72.9777 -72.9777,-72.9777 z m -64.8493,39.5443 c -5.1784,10.0237 -8.1284,21.3758 -8.1284,33.4334 0,40.296 32.6815,72.948 72.9777,72.948 5.789,0 11.39,-0.6839 16.7908,-1.958 l -81.6401,-104.4234 z"
       id="rect3029-7"
       inkscape:connector-curvature="0" />
    <rect
       style="opacity:0.01000001;color:#000000;fill:none;stroke:#8c8e8f;stroke-width:1;stroke-linecap:round;stroke-linejoin:round;stroke-miterlimit:4;stroke-opacity:1;stroke-dasharray:none;stroke-dashoffset:0;marker:none;visibility:visible;display:inline;overflow:visible;enable-background:accumulate"
       id="rect4980-5-0-8"
       width="531.42859"
       height="531.42859"
       x="2637.1428"
       y="-1181.9236"
       inkscape:export-filename="/home/jjouber/Documents/Perso/cooking_plan/website/res/time.png"
       inkscape:export-xdpi="4.0568132"
       inkscape:export-ydpi="4.0568132" />
    <g
       id="g3814"
       transform="translate(0,-14)">
      <path
         id="path3021"
         transform="translate(0,-1947.6378)"
         d="m 2902.1562,807.5625 c -131.9197,0 -238.875,106.95529 -238.875,238.875 0,131.9197 106.9553,238.8437 238.875,238.8437 131.9198,0 238.8438,-106.924 238.8438,-238.8437 0,-131.91971 -106.924,-238.875 -238.8438,-238.875 z m 0.8438,62.125 c 98.0842,0 177.5938,79.50958 177.5938,177.5937 0,98.0842 -79.5096,177.5938 -177.5938,177.5938 -98.0842,0 -177.5938,-79.5096 -177.5938,-177.5938 0,-98.08412 79.5096,-177.5937 177.5938,-177.5937 z"
         style="color:#000000;fill:#2887c6;fill-opacity:1;fill-rule:evenodd;stroke:#2887c6;stroke-width:6.84791422;stroke-linecap:round;stroke-linejoin:round;stroke-miterlimit:4;stroke-opacity:1;stroke-dasharray:none;stroke-dashoffset:0;marker:none;visibility:visible;display:inline;overflow:visible;enable-background:accumulate"
         inkscape:connector-curvature="0" />
      <path
         sodipodi:nodetypes="ccc"
         transform="translate(0,-1947.6378)"
         inkscape:connector-curvature="0"
         id="path3810"
         d="m 2840.5489,950.40049 54.5483,102.02541 88.1581,-0.5917"
         style="fill:none;stroke:#2887c6;stroke-width:60;stroke-linecap:round;stroke-linejoin:round;stroke-miterlimit:4;stroke-opacity:1;stroke-dasharray:none" />
    </g>
    <rect
       style="opacity:0.01000001;color:#000000;fill:none;stroke:#8c8e8f;stroke-width:1;stroke-linecap:round;stroke-linejoin:round;stroke-miterlimit:4;stroke-opacity:1;stroke-dasharray:none;stroke-dashoffset:0;marker:none;visibility:visible;display:inline;overflow:visible;enable-background:accumulate"
       id="rect4980-5-0-8-8"
       width="531.42859"
       height="531.42859"
       x="1831.4286"
       y="-1164.7806"
       inkscape:export-filename="/home/jjouber/Documents/Perso/cooking_plan/website/res/price.png"
       inkscape:export-xdpi="4.0568132"
       inkscape:export-ydpi="4.0568132" />
    <path
       style="color:#000000;fill:#2887c6;fill-opacity:1;fill-rule:evenodd;stroke:#2887c6;stroke-width:6.84791422;stroke-linecap:round;stroke-linejoin:round;stroke-miterlimit:4;stroke-opacity:1;stroke-dasharray:none;stroke-dashoffset:0;marker:none;visibility:visible;display:inline;overflow:visible;enable-background:accumulate"
       d="m 2096.4419,-1136.928 c -131.9195,0 -238.875,106.9554 -238.875,238.87497 0,131.9199 106.9555,238.8438 238.875,238.8438 131.92,0 238.8438,-106.9239 238.8438,-238.8438 0,-131.91957 -106.9238,-238.87497 -238.8438,-238.87497 z m 15.5626,83.9688 c 23.7987,-0.1637 48.4345,3.2219 71.125,10.4062 2.2038,0.2756 11.2992,1.8202 18.875,10.1875 4.0919,4.5195 5.965,10.2304 6.5312,14.6563 0.5664,4.4259 0.2812,7.8713 0.2812,10.4375 0,5.4798 -1.4011,10.82967 -4.7187,15.68747 -3.3175,4.85781 -9.3972,9.27653 -16.6563,9.75 -6.1616,0.40193 -11.46,-1.05981 -15.1874,-2.6875 -3.0286,-1.32249 -5.9488,-3.08961 -6.0626,-3.25 -27.2984,-14.08367 -43.8906,-14.79927 -71.7812,-9.625 -13.6995,2.5416 -31.5976,14.3123 -43.6875,27.40625 -6.045,6.54696 -10.6853,13.39159 -13.0313,18.625 -0.5418,1.20875 -0.8912,2.25705 -1.1562,3.1875 3.6406,0.39129 8.1112,0.69629 13.375,0.8125 12.2143,0.26965 26.1507,-0.12104 33.0938,-0.3125 0.052,-3.1e-4 0.1042,-3.1e-4 0.1562,0 0,0 14.9968,-0.22249 30.5312,-0.0937 7.7673,0.0644 15.6276,0.2144 22.0626,0.53125 3.2175,0.15843 6.0631,0.32918 8.5624,0.625 1.2499,0.14792 2.4109,0.30487 3.7188,0.59375 1.308,0.28889 2.4597,0.0502 5.9375,2.53125 5.9085,4.21518 7.4159,12.21245 6.75,16.75005 -0.6659,4.5375 -2.275,7.606 -4,10.3124 -2.3776,3.7305 -4.9491,10.1416 -14.7813,13.9688 -5.8529,2.2784 -8.4153,1.6809 -13.0312,1.8125 -4.6158,0.1316 -10.0067,0.0672 -15.8125,-0.0625 -11.6114,-0.2595 -24.7606,-0.8121 -34.0937,-0.9062 -11.4414,-0.1154 -24.6123,-0.552 -34.8126,-0.3126 -4.6821,0.1099 -8.4428,0.4083 -11,0.7813 -0.3601,1.1156 -0.4278,2.112 -0.7187,5.9375 -0.098,1.3011 -0.031,2.4355 -0.031,3.7188 3.7772,0.2989 8.4792,0.5395 13.375,0.6562 10.8128,0.2577 21.4376,0.125 21.4376,0.125 0.052,-3e-4 0.1042,-3e-4 0.1562,0 12.5569,0 23.0129,-0.367 31.1562,-0.375 4.0718,-0.004 7.5293,0.0744 10.7813,0.4062 3.2521,0.3319 6.2801,-0.4987 11.8437,4.4376 3.4556,3.0661 6.015,8.6253 5.9063,13.5624 -0.1088,4.9372 -1.8947,8.8892 -4.1875,12.5313 -1.8855,2.9928 -6.8918,11.1811 -17,13.8125 -0.01,0.003 -0.021,-0.003 -0.031,0 -4.7068,1.2163 -7.4465,0.9507 -11.75,1.0312 -4.3127,0.0808 -9.1874,0.04 -13.875,-0.0624 -9.2806,-0.2028 -17.5492,-0.5858 -17.7188,-0.5938 0,0 -0.1875,1e-4 -0.1875,0 -0.1781,-0.006 -8.7455,-0.2835 -17.5,-0.0625 -2.1038,0.0531 -3.6261,0.2576 -5.5625,0.375 9.1986,30.5379 25.6443,45.5475 56,51.0937 27.0242,4.9375 53.1517,1.7995 77.9062,-12.3437 4.1192,-2.3535 5.9093,-2.5067 9.3126,-3.2187 1.7017,-0.3561 3.4824,-0.6564 5.6562,-0.7188 2.1738,-0.0624 4.7905,-0.4449 9.2188,2.125 4.6872,2.7204 8.8457,7.7619 10.3437,12.5625 1.4979,4.8006 1.25,8.4203 1.25,11.5 0,5.5187 1.1787,15.6211 -6.25,24.6875 -5.6313,6.8732 -12.6883,9.2382 -17.5313,10.8438 -9.2819,3.0771 -21.1902,4.8254 -27.6874,6.0937 -20.6352,4.028 -56.8372,4.7452 -77.3126,1.4687 -59.0342,-9.4467 -99.758,-44.86 -116.75,-101.7187 -0.046,-0.1541 -0.085,-0.313 -0.125,-0.4687 0,0 -0.1581,-0.623 -0.4687,-1.375 -1.0137,-0.2252 -3.1508,-0.8646 -5.3125,-0.9688 -3.4588,-0.1668 -6.375,0.0625 -6.375,0.0625 -0.3778,0.0344 -0.7457,0.0624 -1.125,0.0625 -5.8281,0 -9.7851,0.1995 -13.7188,0.0312 -3.9337,-0.1682 -9.6833,-0.9411 -14.1562,-5.2812 -3.5527,-3.4473 -5.3467,-10.2073 -4.625,-14.5625 0.7217,-4.3552 2.3455,-7.2584 4.2812,-10.4375 1.7508,-2.8756 4.9573,-8.0419 11,-11.4375 6.7506,-3.7932 11.3377,-3.2162 15.4376,-3.2813 3.8734,-0.0613 6.7172,0.2177 7.0624,0.25 0,0 1.6261,0.0607 3.4688,-0.125 0.1725,-0.0173 0.1834,-0.087 0.3438,-0.125 0.01,-0.063 0.021,-0.0584 0.031,-0.125 0.191,-1.6259 0.1112,-3.4796 0.031,-4.6874 -0.1242,-1.8823 -0.1327,-2.6709 -0.4062,-3.9376 -0.079,-0.3639 -0.156,-0.5348 -0.25,-0.7812 -0.678,-0.2287 -2.0385,-0.7987 -3.5938,-0.9688 -2.8173,-0.308 -5.25,-0.2187 -5.25,-0.2187 -0.2322,0.015 -0.4547,0.0283 -0.6874,0.0313 -5.8225,0 -10.8802,-0.0345 -14.75,-0.1563 -1.9349,-0.0609 -3.5398,-0.119 -5.125,-0.2813 -0.7928,-0.0811 -1.5037,-0.1449 -2.75,-0.4374 -0.6232,-0.1463 -1.3553,-0.3287 -2.6876,-0.9376 -1.3323,-0.6088 -4.136,-1.2813 -6.4374,-6.4687 -2.2485,-5.0687 -1.0822,-6.6475 -0.8438,-7.875 0.2386,-1.2275 0.4832,-1.9127 0.7188,-2.5625 0.4714,-1.2996 0.9519,-2.2975 1.5,-3.4062 1.0933,-2.2117 2.4867,-4.6945 4.1562,-7.4376 l 0,-0.0312 5.5312,-9.125 c 2.2337,-3.68203 6.4746,-6.0575 10.7813,-6.0625 l 16.5937,0 c 4.8903,0 5.6737,-0.1035 7.5626,-0.1875 8.8407,-26.89259 18.0595,-44.6476 32.1874,-60.12497 11.1424,-12.2062 26.7792,-23.7882 41.9376,-31.125 19.8074,-9.587 44.2312,-14.373 69.875,-15.0625 1.5782,-0.043 3.1634,-0.052 4.75,-0.063 z"
       id="path3021-3"
       inkscape:connector-curvature="0" />
  </g>
</svg>
