<?xml version="1.0" encoding="UTF-8" standalone="no"?>
<!-- Created with Inkscape (http://www.inkscape.org/) -->

<svg
   xmlns:dc="http://purl.org/dc/elements/1.1/"
   xmlns:cc="http://creativecommons.org/ns#"
   xmlns:rdf="http://www.w3.org/1999/02/22-rdf-syntax-ns#"
   xmlns:svg="http://www.w3.org/2000/svg"
   xmlns="http://www.w3.org/2000/svg"
   xmlns:sodipodi="http://sodipodi.sourceforge.net/DTD/sodipodi-0.dtd"
   xmlns:inkscape="http://www.inkscape.org/namespaces/inkscape"
   width="6000"
   height="3000"
   id="svg2"
   version="1.1"
   inkscape:version="0.48.4 r9939"
   sodipodi:docname="icons.svg">
  <defs
     id="defs4" />
  <sodipodi:namedview
     id="base"
     pagecolor="#ffffff"
     bordercolor="#666666"
     borderopacity="1.0"
     inkscape:pageopacity="0.0"
     inkscape:pageshadow="2"
     inkscape:zoom="0.7"
     inkscape:cx="2513.5657"
     inkscape:cy="2534.1597"
     inkscape:document-units="px"
     inkscape:current-layer="layer1"
     showgrid="false"
     inkscape:window-width="1920"
     inkscape:window-height="1014"
     inkscape:window-x="0"
     inkscape:window-y="27"
     inkscape:window-maximized="1" />
  <metadata
     id="metadata7">
    <rdf:RDF>
      <cc:Work
         rdf:about="">
        <dc:format>image/svg+xml</dc:format>
        <dc:type
           rdf:resource="http://purl.org/dc/dcmitype/StillImage" />
        <dc:title></dc:title>
      </cc:Work>
    </rdf:RDF>
  </metadata>
  <g
     inkscape:label="Calque 1"
     inkscape:groupmode="layer"
     id="layer1"
     transform="translate(0,1947.6378)">
    <g
       id="g4148"
       transform="matrix(1.0326452,0,0,1.0326452,-303.16118,9.838773)"
       style="fill:#2887c6;fill-opacity:1;stroke:#2887c6;stroke-opacity:1">
      <path
         inkscape:connector-curvature="0"
         id="path3883-5"
         d="m 1771.2812,-1544.8878 c -13.1739,0 -25.4465,3.8401 -35.8124,10.4687 -0.031,-1.1697 -0.044,-2.3344 -0.094,-3.5 l -379.9062,0 c -0.118,2.7476 -0.1876,5.5047 -0.1876,8.2813 0,87.2545 58.7879,160.7876 138.9063,183.1562 l 102.4687,0 c 50.9774,-14.2325 93.3177,-49.1725 117.375,-95.1875 11.7949,19.4545 33.0205,32.4063 57.25,32.4063 37.0578,0 67.0938,-30.3604 67.0938,-67.8125 0,-37.4521 -30.036,-67.8125 -67.0938,-67.8125 z m -0.7187,38.25 c 16.963,0 30.7187,13.7557 30.7187,30.7187 0,16.9631 -13.7557,30.7188 -30.7187,30.7188 -16.963,0 -30.7187,-13.7557 -30.7187,-30.7188 0,-16.963 13.7557,-30.7187 30.7187,-30.7187 z"
         style="color:#000000;fill:#2887c6;fill-opacity:1;stroke:#2887c6;stroke-width:12;stroke-linecap:round;stroke-linejoin:round;stroke-miterlimit:4;stroke-opacity:1;stroke-dasharray:none;stroke-dashoffset:0;marker:none;visibility:visible;display:inline;overflow:visible;enable-background:accumulate" />
      <path
         sodipodi:nodetypes="ssscsssss"
         inkscape:connector-curvature="0"
         id="path4100"
         d="m 1430.0842,-1578.0547 c -1.2083,-20.1669 38.174,-28.3654 36.3655,-48.4874 -1.4647,-16.2973 -40.5788,-32.1923 -40.9112,-55.0533 -0.2777,-19.1006 32.83,-46.9721 32.83,-46.9721 0,0 -15.3208,32.9271 -8.5863,46.4671 7.4001,14.8781 46.8911,32.9254 46.9721,58.5888 0.065,20.6429 -19.1839,36.1621 -35.3554,48.9924 -5.0756,4.027 -13.8399,9.3012 -20.2031,8.0812 -5.2626,-1.0089 -10.7912,-6.2678 -11.1116,-11.6167 z"
         style="fill:#2887c6;fill-opacity:1;stroke:#2887c6;stroke-width:12;stroke-linecap:round;stroke-linejoin:round;stroke-miterlimit:4;stroke-opacity:1;stroke-dasharray:none" />
      <path
         sodipodi:nodetypes="ssscsssss"
         inkscape:connector-curvature="0"
         id="path4100-0"
         d="m 1529.1726,-1581.082 c -1.2083,-20.1669 38.174,-28.3653 36.3655,-48.4873 -1.4647,-16.2973 -40.5788,-32.1924 -40.9112,-55.0533 -0.2777,-19.1006 32.83,-46.9721 32.83,-46.9721 0,0 -15.3208,32.927 -8.5863,46.467 7.4001,14.8782 46.8911,32.9254 46.9721,58.5889 0.065,20.6429 -19.1839,36.1621 -35.3554,48.9923 -5.0756,4.027 -13.8399,9.3012 -20.2031,8.0813 -5.2626,-1.009 -10.7912,-6.2679 -11.1116,-11.6168 z"
         style="fill:#2887c6;fill-opacity:1;stroke:#2887c6;stroke-width:12;stroke-linecap:round;stroke-linejoin:round;stroke-miterlimit:4;stroke-opacity:1;stroke-dasharray:none" />
      <path
         sodipodi:nodetypes="ssscsssss"
         inkscape:connector-curvature="0"
         id="path4100-0-6"
         d="m 1635.0609,-1576.9196 c -1.2083,-20.1669 38.174,-28.3653 36.3655,-48.4873 -1.4647,-16.2973 -40.5788,-32.1924 -40.9112,-55.0533 -0.2777,-19.1006 32.83,-46.9721 32.83,-46.9721 0,0 -15.3208,32.927 -8.5863,46.467 7.4001,14.8782 46.8911,32.9254 46.9721,58.5889 0.065,20.6429 -19.1839,36.1621 -35.3554,48.9923 -5.0756,4.027 -13.8399,9.3012 -20.2031,8.0813 -5.2626,-1.009 -10.7912,-6.2679 -11.1116,-11.6168 z"
         style="fill:#2887c6;fill-opacity:1;stroke:#2887c6;stroke-width:12;stroke-linecap:round;stroke-linejoin:round;stroke-miterlimit:4;stroke-opacity:1;stroke-dasharray:none" />
    </g>
    <rect
       style="opacity:0;color:#000000;fill:none;fill-opacity:1;fill-rule:evenodd;stroke:#2887c6;stroke-width:1;stroke-linecap:round;stroke-linejoin:round;stroke-miterlimit:4;stroke-opacity:1;stroke-dasharray:none;stroke-dashoffset:0;marker:none;visibility:visible;display:inline;overflow:visible;enable-background:accumulate"
       id="rect4980"
       width="531.42859"
       height="531.42859"
       x="1080"
       y="97.14286"
       transform="translate(0,-1947.6378)"
       inkscape:export-filename="/home/jjouber/Documents/Perso/cooking_plan/website/res/favicon.png"
       inkscape:export-xdpi="4.0570059"
       inkscape:export-ydpi="4.0570059" />
    <rect
       style="opacity:0.97132616;color:#000000;fill:none;stroke:#2887c6;stroke-width:1;stroke-linecap:round;stroke-linejoin:round;stroke-miterlimit:4;stroke-opacity:1;stroke-dasharray:none;stroke-dashoffset:0;marker:none;visibility:visible;display:inline;overflow:visible;enable-background:accumulate;fill-opacity:1"
       id="rect4980-5"
       width="531.42859"
       height="531.42859"
       x="1955.6873"
       y="-1845.4543"
       inkscape:export-filename="/home/jjouber/Documents/Perso/cooking_plan/website/res/favicon.png"
       inkscape:export-xdpi="4.0570059"
       inkscape:export-ydpi="4.0570059" />
    <path
       style="color:#000000;fill:#b3b3b3;fill-opacity:1;fill-rule:evenodd;stroke:#b3b3b3;stroke-width:11.73908519999999989;stroke-linecap:round;stroke-linejoin:round;stroke-miterlimit:4;stroke-opacity:1;stroke-dasharray:none;stroke-dashoffset:0;marker:none;visibility:visible;display:inline;overflow:visible;enable-background:accumulate"
       d="m 2145.6036,-1769.2989 -36.9904,67.1024 -71.8101,0 c -35.0373,0 -63.2504,28.2132 -63.2504,63.2504 l 0,185.9605 c 0,35.0373 28.2131,63.2505 63.2504,63.2505 l 371.7376,0 c 35.0373,0 63.2504,-28.2132 63.2504,-63.2505 l 0,-185.9605 c 0,-35.0372 -28.2131,-63.2504 -63.2504,-63.2504 l -58.7566,0 -34.239,-67.1024 -169.9415,0 z m 82.2653,87.9209 c 71.7913,0 129.9859,58.1946 129.9859,129.986 0,71.7912 -58.1946,129.9858 -129.9859,129.9858 -71.7914,0 -129.9859,-58.1946 -129.9859,-129.9858 0,-71.7914 58.1945,-129.986 129.9859,-129.986 z m 183.2703,4.5244 c 18.9097,0 34.239,15.3293 34.239,34.239 0,18.9098 -15.3293,34.239 -34.239,34.239 -18.9097,0 -34.239,-15.3292 -34.239,-34.239 0,-18.9097 15.3293,-34.239 34.239,-34.239 z m -184.3403,50.5942 c -42.4481,0 -76.8544,34.437 -76.8544,76.885 0,42.448 34.4063,76.8543 76.8544,76.8543 42.4478,0 76.8849,-34.4063 76.8849,-76.8543 0,-42.448 -34.4371,-76.885 -76.8849,-76.885 z"
       id="rect3029"
       inkscape:connector-curvature="0" />
    <rect
       style="opacity:0.01;color:#000000;fill:none;stroke:#8c8e8f;stroke-width:1;stroke-linecap:round;stroke-linejoin:round;stroke-miterlimit:4;stroke-opacity:1;stroke-dasharray:none;stroke-dashoffset:0;marker:none;visibility:visible;display:inline;overflow:visible;enable-background:accumulate"
       id="rect4980-5-0"
       width="531.42859"
       height="531.42859"
       x="2614.2856"
       y="-1870.495"
       inkscape:export-filename="/home/jjouber/Documents/Perso/cooking_plan/website/res/no_picture.png"
       inkscape:export-xdpi="42.934441"
       inkscape:export-ydpi="42.934441" />
    <path
       style="color:#000000;fill:#b3b3b3;fill-opacity:1;fill-rule:evenodd;stroke:#b3b3b3;stroke-width:11.14395905;stroke-linecap:round;stroke-linejoin:round;stroke-miterlimit:4;stroke-opacity:1;stroke-dasharray:none;stroke-dashoffset:0;marker:none;visibility:visible;display:inline;overflow:visible;enable-background:accumulate"
       d="m 2807.1686,-1790.7853 -21.6856,39.3664 44.6172,57.0768 c 16.6039,-8.3142 35.3445,-12.9936 55.1784,-12.9936 68.1517,0 123.4095,55.2579 123.4095,123.4095 0,30.6269 -11.1649,58.6451 -29.6363,80.2162 l 57.2253,73.2448 20.4991,0 c 33.261,0 60.0434,-26.7825 60.0434,-60.0435 l 0,-176.5408 c 0,-33.2609 -26.7824,-60.0434 -60.0434,-60.0434 l -55.7717,0 -32.484,-63.6924 -161.3519,0 z m -103.2665,63.6924 c -33.261,0 -60.0435,26.7825 -60.0435,60.0434 l 0,176.5408 c 0,33.261 26.7825,60.0435 60.0435,60.0435 l 260.1092,0 -31.0006,-39.6631 c -14.6846,6.166 -30.8068,9.582 -47.7321,9.582 -68.152,0 -123.4095,-55.2281 -123.4095,-123.3799 0,-27.6866 9.1371,-53.2503 24.5334,-73.8379 l -54.1992,-69.3288 -28.3012,0 z m 355.366,24.0588 c 17.9511,0 32.484,14.5329 32.484,32.484 0,17.9511 -14.5329,32.5137 -32.484,32.5137 -17.951,0 -32.5136,-14.5626 -32.5136,-32.5137 0,-17.9511 14.5626,-32.484 32.5136,-32.484 z m -174.9982,48.0289 c -7.3094,0 -14.3753,1.0837 -21.0331,3.0851 l 83.7464,107.1823 c 6.5126,-10.9163 10.2644,-23.6564 10.2644,-37.2897 0,-40.2962 -32.6819,-72.9777 -72.9777,-72.9777 z m -64.8493,39.5443 c -5.1784,10.0237 -8.1284,21.3758 -8.1284,33.4334 0,40.296 32.6815,72.948 72.9777,72.948 5.789,0 11.39,-0.6839 16.7908,-1.958 l -81.6401,-104.4234 z"
       id="rect3029-7"
       inkscape:connector-curvature="0" />
  </g>
</svg>
